<svg width="30" height="30" xmlns="http://www.w3.org/2000/svg" xmlns:xlink="http://www.w3.org/1999/xlink" overflow="hidden"><defs><clipPath id="clip0"><rect x="876" y="187" width="30" height="30"/></clipPath></defs><g clip-path="url(#clip0)" transform="translate(-876 -187)"><path d="M877 201.5C877 193.492 883.492 187 891.5 187 899.508 187 906 193.492 906 201.5 906 209.508 899.508 216 891.5 216 883.492 216 877 209.508 877 201.5ZM879.629 201.5C879.629 208.056 884.944 213.371 891.5 213.371 898.056 213.371 903.371 208.056 903.371 201.5 903.371 194.944 898.056 189.629 891.5 189.629 884.944 189.629 879.629 194.944 879.629 201.5Z" fill="#FFFFFF" fill-rule="evenodd"/><path d="M904 201.5 896.867 202.429 896.867 200.571ZM900.338 192.661 895.952 198.362 894.638 197.048ZM891.5 189 892.429 196.133 890.571 196.133ZM882.661 192.661 888.362 197.048 887.048 198.362ZM879 201.5 886.133 200.571 886.133 202.429ZM882.661 210.338 887.048 204.638 888.362 205.952ZM891.5 214 890.571 206.867 892.429 206.867ZM900.338 210.338 894.638 205.952 895.952 204.638ZM888.264 201.5C888.264 199.713 889.713 198.264 891.5 198.264 893.287 198.264 894.736 199.713 894.736 201.5 894.736 203.287 893.287 204.736 891.5 204.736 889.713 204.736 888.264 203.287 888.264 201.5Z" fill="#FFFFFF" fill-rule="evenodd"/></g></svg>